<svg width="20" height="17" viewBox="0 0 20 17" fill="none" xmlns="http://www.w3.org/2000/svg">
<path d="M13.75 8.5H1.75M7.75 12.25V14.125C7.75 14.6223 7.94754 15.0992 8.29917 15.4508C8.65081 15.8025 9.12772 16 9.625 16H17.125C17.6223 16 18.0992 15.8025 18.4508 15.4508C18.8025 15.0992 19 14.6223 19 14.125V2.875C19 2.37772 18.8025 1.90081 18.4508 1.54917C18.0992 1.19754 17.6223 1 17.125 1H10C8.96453 1 7.75 1.83953 7.75 2.875V4.75V12.25ZM4.75 12.25L1 8.5L4.75 4.75V12.25Z" stroke="#363635" stroke-width="1.5" stroke-linecap="round" stroke-linejoin="round"/>
</svg>
