<svg width="21" height="21" viewBox="0 0 21 21" fill="none" xmlns="http://www.w3.org/2000/svg">
<path d="M18.4404 11.0403V9.89278L19.8804 8.63278C20.1458 8.39881 20.32 8.07855 20.3722 7.72858C20.4243 7.37861 20.3511 7.02147 20.1654 6.72028L18.3954 3.72028C18.2639 3.49247 18.0747 3.30326 17.847 3.17162C17.6193 3.03998 17.3609 2.97055 17.0979 2.97028C16.9349 2.96903 16.7727 2.99436 16.6179 3.04528L14.7954 3.66028C14.4807 3.45118 14.1525 3.26327 13.8129 3.09778L13.4304 1.20778C13.3618 0.862479 13.1739 0.552306 12.8997 0.331552C12.6255 0.110799 12.2824 -0.00646964 11.9304 0.000275573H8.42038C8.0684 -0.00646964 7.72526 0.110799 7.45103 0.331552C7.17681 0.552306 6.98896 0.862479 6.92038 1.20778L6.53788 3.09778C6.19583 3.26323 5.8651 3.45114 5.54788 3.66028L3.76288 3.01528C3.60635 2.97449 3.44425 2.9593 3.28288 2.97028C3.01983 2.97055 2.76148 3.03998 2.53375 3.17162C2.30601 3.30326 2.1169 3.49247 1.98537 3.72028L0.215375 6.72028C0.0403152 7.02102 -0.0247363 7.37327 0.0313619 7.7167C0.0874601 8.06013 0.261217 8.37337 0.522875 8.60278L1.94037 9.90028V11.0478L0.522875 12.3078C0.253826 12.5388 0.0753165 12.8576 0.0190239 13.2077C-0.0372687 13.5578 0.0322968 13.9166 0.215375 14.2203L1.98537 17.2203C2.1169 17.4481 2.30601 17.6373 2.53375 17.7689C2.76148 17.9006 3.01983 17.97 3.28288 17.9703C3.44589 17.9715 3.60801 17.9462 3.76288 17.8953L5.58537 17.2803C5.90003 17.4894 6.22826 17.6773 6.56787 17.8428L6.95038 19.7328C7.01896 20.0781 7.20681 20.3882 7.48103 20.609C7.75526 20.8298 8.0984 20.947 8.45038 20.9403H11.9904C12.3424 20.947 12.6855 20.8298 12.9597 20.609C13.2339 20.3882 13.4218 20.0781 13.4904 19.7328L13.8729 17.8428C14.2149 17.6773 14.5456 17.4894 14.8629 17.2803L16.6779 17.8953C16.8327 17.9462 16.9949 17.9715 17.1579 17.9703C17.4209 17.97 17.6793 17.9006 17.907 17.7689C18.1347 17.6373 18.3239 17.4481 18.4554 17.2203L20.1654 14.2203C20.3404 13.9195 20.4055 13.5673 20.3494 13.2239C20.2933 12.8804 20.1195 12.5672 19.8579 12.3378L18.4404 11.0403ZM17.0979 16.4703L14.5254 15.6003C13.9232 16.1104 13.2349 16.5091 12.4929 16.7778L11.9604 19.4703H8.42038L7.88788 16.8078C7.15169 16.5315 6.46716 16.1334 5.86287 15.6303L3.28288 16.4703L1.51287 13.4703L3.55288 11.6703C3.4142 10.8939 3.4142 10.0991 3.55288 9.32278L1.51287 7.47028L3.28288 4.47028L5.85538 5.34028C6.45758 4.83019 7.14583 4.43147 7.88788 4.16278L8.42038 1.47028H11.9604L12.4929 4.13278C13.2291 4.40909 13.9136 4.80713 14.5179 5.31028L17.0979 4.47028L18.8679 7.47028L16.8279 9.27028C16.9666 10.0466 16.9666 10.8414 16.8279 11.6178L18.8679 13.4703L17.0979 16.4703Z" fill="white"/>
<path d="M10.1904 14.9703C9.30042 14.9703 8.43039 14.7064 7.69037 14.2119C6.95034 13.7174 6.37357 13.0146 6.03297 12.1924C5.69238 11.3701 5.60326 10.4653 5.7769 9.59237C5.95053 8.71946 6.37911 7.91763 7.00845 7.2883C7.63779 6.65896 8.43961 6.23038 9.31253 6.05674C10.1854 5.88311 11.0902 5.97223 11.9125 6.31282C12.7348 6.65341 13.4376 7.23019 13.932 7.97021C14.4265 8.71023 14.6904 9.58026 14.6904 10.4703C14.6964 11.0629 14.5842 11.6508 14.3601 12.1994C14.1361 12.7481 13.8049 13.2466 13.3858 13.6657C12.9668 14.0847 12.4683 14.416 11.9196 14.64C11.3709 14.864 10.7831 14.9763 10.1904 14.9703ZM10.1904 7.47028C9.79394 7.46104 9.3997 7.53233 9.03154 7.67982C8.66339 7.82731 8.32898 8.04795 8.04855 8.32839C7.76811 8.60883 7.54747 8.94324 7.39997 9.31139C7.25248 9.67954 7.1812 10.0738 7.19043 10.4703C7.1812 10.8668 7.25248 11.261 7.39997 11.6292C7.54747 11.9973 7.76811 12.3317 8.04855 12.6122C8.32898 12.8926 8.66339 13.1132 9.03154 13.2607C9.3997 13.4082 9.79394 13.4795 10.1904 13.4703C10.5869 13.4795 10.9812 13.4082 11.3493 13.2607C11.7175 13.1132 12.0519 12.8926 12.3323 12.6122C12.6128 12.3317 12.8334 11.9973 12.9809 11.6292C13.1284 11.261 13.1997 10.8668 13.1904 10.4703C13.1997 10.0738 13.1284 9.67954 12.9809 9.31139C12.8334 8.94324 12.6128 8.60883 12.3323 8.32839C12.0519 8.04795 11.7175 7.82731 11.3493 7.67982C10.9812 7.53233 10.5869 7.46104 10.1904 7.47028Z" fill="white"/>
</svg>
