<svg width="26" height="28" viewBox="0 0 26 28" fill="none" xmlns="http://www.w3.org/2000/svg">
<path d="M8 10.2666C8.26522 10.2666 8.51957 10.3649 8.70711 10.54C8.89464 10.715 9 10.9524 9 11.1999V22.3999C9 22.6475 8.89464 22.8849 8.70711 23.0599C8.51957 23.2349 8.26522 23.3333 8 23.3333C7.73478 23.3333 7.48043 23.2349 7.29289 23.0599C7.10536 22.8849 7 22.6475 7 22.3999V11.1999C7 10.9524 7.10536 10.715 7.29289 10.54C7.48043 10.3649 7.73478 10.2666 8 10.2666ZM13 10.2666C13.2652 10.2666 13.5196 10.3649 13.7071 10.54C13.8946 10.715 14 10.9524 14 11.1999V22.3999C14 22.6475 13.8946 22.8849 13.7071 23.0599C13.5196 23.2349 13.2652 23.3333 13 23.3333C12.7348 23.3333 12.4804 23.2349 12.2929 23.0599C12.1054 22.8849 12 22.6475 12 22.3999V11.1999C12 10.9524 12.1054 10.715 12.2929 10.54C12.4804 10.3649 12.7348 10.2666 13 10.2666ZM19 11.1999C19 10.9524 18.8946 10.715 18.7071 10.54C18.5196 10.3649 18.2652 10.2666 18 10.2666C17.7348 10.2666 17.4804 10.3649 17.2929 10.54C17.1054 10.715 17 10.9524 17 11.1999V22.3999C17 22.6475 17.1054 22.8849 17.2929 23.0599C17.4804 23.2349 17.7348 23.3333 18 23.3333C18.2652 23.3333 18.5196 23.2349 18.7071 23.0599C18.8946 22.8849 19 22.6475 19 22.3999V11.1999Z" fill="white"/>
<path fill-rule="evenodd" clip-rule="evenodd" d="M26 5.6C26 6.09507 25.7893 6.56986 25.4142 6.91993C25.0391 7.27 24.5304 7.46667 24 7.46667H23V24.2667C23 25.2568 22.5786 26.2064 21.8284 26.9065C21.0783 27.6067 20.0609 28 19 28H7C5.93913 28 4.92172 27.6067 4.17157 26.9065C3.42143 26.2064 3 25.2568 3 24.2667V7.46667H2C1.46957 7.46667 0.960859 7.27 0.585786 6.91993C0.210714 6.56986 0 6.09507 0 5.6V3.73333C0 3.23826 0.210714 2.76347 0.585786 2.4134C0.960859 2.06333 1.46957 1.86667 2 1.86667H9C9 1.3716 9.21071 0.896802 9.58579 0.546734C9.96086 0.196666 10.4696 0 11 0L15 0C15.5304 0 16.0391 0.196666 16.4142 0.546734C16.7893 0.896802 17 1.3716 17 1.86667H24C24.5304 1.86667 25.0391 2.06333 25.4142 2.4134C25.7893 2.76347 26 3.23826 26 3.73333V5.6ZM5.236 7.46667L5 7.5768V24.2667C5 24.7617 5.21071 25.2365 5.58579 25.5866C5.96086 25.9367 6.46957 26.1333 7 26.1333H19C19.5304 26.1333 20.0391 25.9367 20.4142 25.5866C20.7893 25.2365 21 24.7617 21 24.2667V7.5768L20.764 7.46667H5.236ZM2 5.6V3.73333H24V5.6H2Z" fill="white"/>
</svg>
