<svg width="18" height="18" viewBox="0 0 18 18" fill="none" xmlns="http://www.w3.org/2000/svg">
<path d="M9 1.5C10.4834 1.5 11.9334 1.93987 13.1668 2.76398C14.4001 3.58809 15.3614 4.75943 15.9291 6.12987C16.4968 7.50032 16.6453 9.00832 16.3559 10.4632C16.0665 11.918 15.3522 13.2544 14.3033 14.3033C13.2544 15.3522 11.918 16.0665 10.4632 16.3559C9.00832 16.6453 7.50032 16.4968 6.12987 15.9291C4.75943 15.3614 3.58809 14.4001 2.76398 13.1668C1.93987 11.9334 1.5 10.4834 1.5 9C1.5 8.80109 1.42098 8.61032 1.28033 8.46967C1.13968 8.32902 0.948912 8.25 0.75 8.25C0.551088 8.25 0.360322 8.32902 0.21967 8.46967C0.0790178 8.61032 2.31242e-09 8.80109 2.31241e-09 9C-4.66921e-05 11.0607 0.70708 13.059 2.00323 14.6611C3.29938 16.2631 5.10605 17.3718 7.12136 17.8019C9.13667 18.2321 11.2386 17.9576 13.0758 17.0244C14.9131 16.0912 16.3745 14.5557 17.2158 12.6745C18.0571 10.7934 18.2274 8.68049 17.6982 6.6889C17.1689 4.6973 15.9723 2.94764 14.3082 1.73224C12.644 0.51684 10.6132 -0.0906713 8.55504 0.0112102C6.49685 0.113092 4.53596 0.918195 3 2.292V0.75C3 0.551088 2.92098 0.360322 2.78033 0.21967C2.63968 0.0790178 2.44891 0 2.25 0C2.05109 0 1.86032 0.0790178 1.71967 0.21967C1.57902 0.360322 1.5 0.551088 1.5 0.75V5.25C1.5 5.44891 1.57902 5.63968 1.71967 5.78033C1.86032 5.92098 2.05109 6 2.25 6H5.25C5.44891 6 5.63968 5.92098 5.78033 5.78033C5.92098 5.63968 6 5.44891 6 5.25C6 5.05109 5.92098 4.86032 5.78033 4.71967C5.63968 4.57902 5.44891 4.5 5.25 4.5H3C3.69795 3.56784 4.6037 2.81131 5.64526 2.29053C6.68683 1.76975 7.8355 1.49907 9 1.5ZM9.0015 5.25C9.0015 5.05109 8.92248 4.86032 8.78183 4.71967C8.64118 4.57902 8.45041 4.5 8.2515 4.5C8.05259 4.5 7.86182 4.57902 7.72117 4.71967C7.58052 4.86032 7.5015 5.05109 7.5015 5.25V9.75C7.5015 9.94891 7.58052 10.1397 7.72117 10.2803C7.86182 10.421 8.05259 10.5 8.2515 10.5H11.2515C11.4504 10.5 11.6412 10.421 11.7818 10.2803C11.9225 10.1397 12.0015 9.94891 12.0015 9.75C12.0015 9.55109 11.9225 9.36032 11.7818 9.21967C11.6412 9.07902 11.4504 9 11.2515 9H9.0015V5.25Z" fill="white"/>
</svg>
