<svg width="20" height="20" viewBox="0 0 20 20" fill="none" xmlns="http://www.w3.org/2000/svg">
<path d="M10 0C4.477 0 0 4.477 0 10C0 15.523 4.477 20 10 20C15.523 20 20 15.523 20 10C20 4.477 15.523 0 10 0ZM16.918 6H13.703C13.5535 4.8748 13.3651 3.75513 13.138 2.643C14.7259 3.32693 16.0513 4.50403 16.918 6ZM11.014 2.072C11.082 2.424 11.401 4.11 11.659 6H8.341C8.599 4.11 8.918 2.424 8.986 2.072C9.319 2.029 9.656 2 10 2C10.344 2 10.681 2.029 11.014 2.072ZM12 10C12 10.598 11.957 11.286 11.891 12H8.109C8.043 11.286 8 10.598 8 10C8 9.402 8.043 8.714 8.109 8H11.891C11.957 8.714 12 9.402 12 10ZM6.862 2.643C6.63491 3.75513 6.44646 4.8748 6.297 6H3.082C3.94871 4.50403 5.27413 3.32693 6.862 2.643ZM2.263 8H6.084C6.033 8.668 6 9.344 6 10C6 10.656 6.033 11.332 6.085 12H2.263C2.097 11.359 2 10.692 2 10C2 9.308 2.098 8.641 2.263 8ZM3.082 14H6.297C6.485 15.424 6.717 16.65 6.862 17.357C5.27413 16.6731 3.94871 15.496 3.082 14ZM8.986 17.928C8.73731 16.6244 8.52224 15.3147 8.341 14H11.659C11.4773 15.3146 11.2623 16.6243 11.014 17.928C10.681 17.971 10.344 18 10 18C9.656 18 9.319 17.971 8.986 17.928ZM13.138 17.357C13.283 16.65 13.515 15.424 13.703 14H16.918C16.0513 15.496 14.7259 16.6731 13.138 17.357ZM17.737 12H13.916C13.967 11.332 14 10.656 14 10C14 9.344 13.967 8.668 13.915 8H17.736C17.902 8.641 18 9.308 18 10C18 10.692 17.903 11.359 17.737 12Z" fill="white"/>
</svg>
