<svg width="135" height="180" viewBox="0 0 135 180" fill="none" xmlns="http://www.w3.org/2000/svg">
<path d="M60.5625 176.4C9.48 102.315 0 94.7175 0 67.5C0 30.2175 30.2175 0 67.5 0C104.783 0 135 30.2175 135 67.5C135 94.7175 125.52 102.3 74.4375 176.37C73.6617 177.487 72.6276 178.401 71.4231 179.032C70.2185 179.664 68.8792 179.995 67.5191 179.998C66.1589 180.001 64.8182 179.676 63.6109 179.049C62.4037 178.423 61.3656 177.514 60.585 176.4L60.57 176.37L60.5625 176.4ZM67.5 95.625C74.9592 95.625 82.1129 92.6618 87.3874 87.3874C92.6618 82.1129 95.625 74.9592 95.625 67.5C95.625 60.0408 92.6618 52.8871 87.3874 47.6126C82.1129 42.3382 74.9592 39.375 67.5 39.375C60.0408 39.375 52.8871 42.3382 47.6126 47.6126C42.3382 52.8871 39.375 60.0408 39.375 67.5C39.375 74.9592 42.3382 82.1129 47.6126 87.3874C52.8871 92.6618 60.0408 95.625 67.5 95.625V95.625Z" fill="#0246C1"/>
</svg>
